HIERARCHY
ROOT Bip001_Pelvis
{
  OFFSET 33.2923 95.8902 -28.781
  CHANNELS 6 Xposition Yposition Zposition Zrotation Xrotation Yrotation
  JOINT Bip001_Spine
  {
    OFFSET 1.4188e-005 10.2191 -0.0116013
    CHANNELS 3 Zrotation Xrotation Yrotation
    JOINT Bip001_L_Thigh
    {
      OFFSET 11.0458 -10.2192 0.0116197
      CHANNELS 3 Zrotation Xrotation Yrotation
      JOINT Bip001_L_Calf
      {
        OFFSET -0.707118 -44.0221 0.360014
        CHANNELS 3 Zrotation Xrotation Yrotation
        JOINT Bip001_L_Foot
        {
          OFFSET -0.651902 -40.5938 -3.56146
          CHANNELS 3 Zrotation Xrotation Yrotation
          JOINT Bip001_L_Toe0
          {
            OFFSET 0.0530839 -10.2181 13.1504
            CHANNELS 3 Zrotation Xrotation Yrotation
            End Site
            {
              OFFSET -1.02532e-005 0 7.55606
            }
          }
        }
      }
    }
    JOINT Bip001_R_Thigh
    {
      OFFSET -11.0458 -10.2191 0.0115893
      CHANNELS 3 Zrotation Xrotation Yrotation
      JOINT Bip001_R_Calf
      {
        OFFSET 0.706994 -44.0221 0.35984
        CHANNELS 3 Zrotation Xrotation Yrotation
        JOINT Bip001_R_Foot
        {
          OFFSET 0.651786 -40.5938 -3.5613
          CHANNELS 3 Zrotation Xrotation Yrotation
          JOINT Bip001_R_Toe0
          {
            OFFSET -0.0531479 -10.2181 13.1504
            CHANNELS 3 Zrotation Xrotation Yrotation
            End Site
            {
              OFFSET -1.02894e-005 0 7.55606
            }
          }
        }
      }
    }
    JOINT Bip001_Spine1
    {
      OFFSET 1.87041e-005 14.5736 1.08638
      CHANNELS 3 Zrotation Xrotation Yrotation
      JOINT Bip001_Spine2
      {
        OFFSET 2.24614e-005 14.5058 -1.69078
        CHANNELS 3 Zrotation Xrotation Yrotation
        JOINT Bip001_Neck
        {
          OFFSET 2.20278e-005 15.3945 -0.489414
          CHANNELS 3 Zrotation Xrotation Yrotation
          JOINT Bip001_L_Clavicle
          {
            OFFSET 6.06036 -0.000579998 0.00836775
            CHANNELS 3 Zrotation Xrotation Yrotation
            JOINT Bip001_L_UpperArm
            {
              OFFSET 11.5509 -0.0600302 0.00193952
              CHANNELS 3 Zrotation Xrotation Yrotation
              JOINT Bip001_L_Forearm
              {
                OFFSET 25.9523 0.0806089 -2.15551
                CHANNELS 3 Zrotation Xrotation Yrotation
                JOINT Bip001_L_Hand
                {
                  OFFSET 32.2476 0.153767 1.63968
                  CHANNELS 3 Zrotation Xrotation Yrotation
                  JOINT Bip001_L_Finger0
                  {
                    OFFSET 6.04639 -2.20976 5.90322
                    CHANNELS 3 Zrotation Xrotation Yrotation
                    End Site
                    {
                      OFFSET 4.22376 -1.43895 0.606486
                    }
                  }
                  JOINT Bip001_L_Finger1
                  {
                    OFFSET 11.0826 -0.704819 -0.198153
                    CHANNELS 3 Zrotation Xrotation Yrotation
                    End Site
                    {
                      OFFSET 6.20028 -0.397518 -0.0787166
                    }
                  }
                }
              }
            }
          }
          JOINT Bip001_R_Clavicle
          {
            OFFSET -6.06036 -0.000563197 0.00835105
            CHANNELS 3 Zrotation Xrotation Yrotation
            JOINT Bip001_R_UpperArm
            {
              OFFSET -11.5509 -0.0599978 0.00190698
              CHANNELS 3 Zrotation Xrotation Yrotation
              JOINT Bip001_R_Forearm
              {
                OFFSET -25.9523 0.080682 -2.1559
                CHANNELS 3 Zrotation Xrotation Yrotation
                JOINT Bip001_R_Hand
                {
                  OFFSET -32.2476 0.153858 1.63991
                  CHANNELS 3 Zrotation Xrotation Yrotation
                  JOINT Bip001_R_Finger0
                  {
                    OFFSET -6.04641 -2.20974 5.90321
                    CHANNELS 3 Zrotation Xrotation Yrotation
                    End Site
                    {
                      OFFSET -4.22376 -1.43894 0.606474
                    }
                  }
                  JOINT Bip001_R_Finger1
                  {
                    OFFSET -11.0826 -0.704789 -0.198184
                    CHANNELS 3 Zrotation Xrotation Yrotation
                    End Site
                    {
                      OFFSET -6.20028 -0.397501 -0.0787338
                    }
                  }
                }
              }
            }
          }
          JOINT Bip001_Head
          {
            OFFSET 1.09673e-005 11.2744 2.05948
            CHANNELS 3 Zrotation Xrotation Yrotation
            End Site
            {
              OFFSET 2.89576e-005 20.8808 -2.77728e-005
            }
          }
        }
      }
    }
  }
}
MOTION
Frames:	11
Frame Time:	0.04
31.523 95.8469 -28.5024 -0.496399 0.534964 6.0678 -0.247679 2.78054 0.39144 6.98864 -6.80321 4.94078 -0.821567 9.56932 -14.444 3.61587 -2.97286 -0.0772628 -3.3933 -3.95994 5.1933 -1.2743 -3.56487 -4.6488 0.0286816 9.55233 -0.406735 -6.17852 -9.50952 0.887523 1.96843 -7.02431 2.4513 -0.516324 5.5593 0.796403 -0.516312 5.55932 0.796447 -1.62375 1.12083 -2.21456 -24.0721 0.213685 -1.64361 -47.2585 37.5431 -2.44807 11.8624 -0.704933 -26.5902 8.05823 1.45005 -1.74633 1.59028e-015 6.36111e-015 -0 1.59028e-015 3.18056e-015 -0 18.0351 7.23977 30.6883 51.3872 -4.22752 48.9715 -41.4642 3.38079 82.6368 -55.7596 8.07969 13.1023 0 6.36111e-015 -0 8.82782e-032 3.18056e-015 -1.59028e-015 1.98909 12.3133 -3.254 
31.4535 95.834 -28.4354 -0.617603 0.563652 6.19598 -0.23796 2.79027 0.472566 7.20439 -6.99782 5.1201 -0.835819 9.89601 -14.7343 3.28905 -3.39403 -0.0562206 -3.53806 -3.74218 5.29381 -1.09929 -3.50402 -4.87108 -0.013268 9.43686 -0.410436 -6.1921 -9.5022 0.911271 1.97059 -7.01245 2.45554 -0.499888 5.57925 0.958474 -0.499887 5.57926 0.95847 -1.79913 0.96256 -2.29313 -24.1094 0.289695 -1.35641 -47.2046 37.4764 -2.56182 11.531 -0.835107 -26.483 8.06477 1.76834 -1.5352 3.18055e-015 -3.18055e-015 -3.18055e-015 6.36111e-015 0 -6.36111e-015 16.7217 7.27496 32.2121 47.0415 -0.0506383 50.2805 -44.3704 1.7393 76.6139 -57.2664 8.53532 13.5148 0 0 -3.18055e-015 -1.59028e-015 -6.36111e-015 -6.36111e-015 2.07651 12.3725 -3.41438 
31.4067 95.8099 -28.3882 -0.662425 0.644387 6.3406 -0.26373 2.79915 0.570211 7.26452 -7.23799 6.5762 -0.503403 10.2096 -16.4409 3.37772 -3.52589 -0.0538189 -3.50273 -3.76735 5.29668 -1.0136 -3.63299 -5.1753 -0.0427565 9.61133 -0.406351 -6.1783 -9.61659 0.95295 1.96918 -7.00234 2.43289 -0.555675 5.59459 1.15545 -0.556019 5.59459 1.15539 -1.703 0.73694 -2.45068 -24.0835 0.35673 -0.909665 -47.5361 37.6874 -2.61619 11.7258 -0.797858 -26.3365 7.85763 1.71055 -1.60445 1.59028e-015 -6.36111e-015 3.18055e-015 1.76556e-031 -3.18056e-015 3.18055e-015 15.2601 7.27291 33.2795 41.8711 4.10493 52.0005 -46.2167 0.782402 69.1615 -58.1967 9.05165 13.04 1.59028e-015 9.54166e-015 -1.59028e-015 1.59028e-015 3.18056e-015 -1.59028e-015 2.04814 12.478 -3.52342 
31.3449 95.7997 -28.3488 -0.73303 0.720017 6.55834 -0.261734 2.81629 0.652852 7.34858 -7.44794 6.73362 -0.414138 10.3599 -16.8738 3.26668 -3.67474 -0.0532258 -3.55695 -3.70991 5.32282 -0.916015 -3.65514 -5.55725 -0.0657272 9.56571 -0.386324 -6.173 -9.63799 1.01627 1.97282 -7.01101 2.43558 -0.558146 5.62782 1.32104 -0.557361 5.62781 1.32108 -1.54919 0.739423 -2.65544 -24.2563 0.227823 -0.609107 -47.6327 37.6517 -2.695 11.6675 -0.737922 -26.3902 7.88 1.76105 -1.60868 4.77083e-015 -3.18055e-015 3.18055e-015 3.18055e-015 3.18056e-015 3.18055e-015 13.46 6.93986 34.5344 36.9499 6.80474 54.058 -46.1088 0.592151 61.1692 -57.8223 9.8219 12.7265 -1.59028e-015 -3.18055e-015 1.59028e-015 -3.18055e-015 -3.18056e-015 1.59028e-015 1.77186 12.4286 -3.58661 
31.2575 95.8009 -28.3392 -0.852942 0.838186 6.87346 -0.247719 2.81572 0.710436 7.50588 -7.735 6.58528 -0.425504 10.5217 -17.0312 3.17065 -3.77978 -0.0527307 -3.52502 -3.61585 5.28121 -0.72838 -3.68084 -5.80509 -0.118303 9.41395 -0.385801 -6.2242 -9.55882 0.878622 1.97857 -7.02894 2.44674 -0.53081 5.62812 1.43533 -0.529123 5.62814 1.43554 -1.43037 1.01888 -2.82101 -24.4919 -0.159051 -0.383199 -47.5087 37.6577 -2.80806 11.5477 -0.597285 -26.6107 7.9711 1.80211 -1.71978 -0 0 3.18055e-015 4.77083e-015 -3.18056e-015 3.18055e-015 11.4698 6.1762 35.5452 29.5841 10.4285 55.7575 -46.9653 -0.512808 51.5306 -62.8094 8.70071 10.7808 0 6.36111e-015 -0 -1.59028e-015 0 -0 1.60122 12.2175 -3.65824 
31.1889 95.8006 -28.3349 -0.93787 1.00581 7.37657 -0.263663 2.78617 0.760305 7.61434 -8.05427 6.53302 -0.398134 10.6066 -17.4985 3.16592 -3.73903 -0.0521283 -3.52567 -3.64585 5.28292 -0.571593 -3.74893 -6.33368 -0.207234 9.37059 -0.367187 -6.22432 -9.54187 0.886835 1.97818 -7.01753 2.42124 -0.56389 5.56856 1.5371 -0.564658 5.56855 1.53658 -0.889982 1.5498 -3.30877 -25.2492 -0.84478 -0.254002 -47.0853 37.5824 -2.66965 11.5663 -0.346927 -26.9685 8.02778 1.72007 -1.82057 6.36111e-015 -3.18055e-015 -3.18055e-015 6.36111e-015 -3.18056e-015 -0 10.7892 5.54632 35.6511 27.658 12.556 55.5651 -48.8826 -5.05432 47.8923 -62.1614 8.4067 13.0397 7.95139e-016 3.18055e-015 -7.95139e-016 1.59028e-015 0 -7.95139e-016 1.28738 11.8894 -3.86271 
31.142 95.7936 -28.3087 -1.00332 1.0796 7.92933 -0.296668 2.75758 0.662036 7.70432 -8.24889 6.31871 -0.377755 10.6501 -17.7697 3.24661 -3.59797 -0.0497336 -3.52786 -3.81449 5.26165 -0.427352 -3.69087 -6.81461 -0.263032 9.31905 -0.371617 -6.21622 -9.56725 0.95458 1.97474 -7.00412 2.3822 -0.626349 5.51151 1.34073 -0.626351 5.51152 1.34074 -0.455526 2.01253 -3.39448 -25.4645 -1.40639 -0.117141 -46.8833 36.463 -2.46795 10.8839 0.575577 -27.5199 8.63709 1.7549 -1.86401 -6.36111e-015 3.18055e-015 -0 -7.95139e-015 6.36111e-015 3.18055e-015 10.5291 5.10623 35.7533 27.1324 12.652 55.7615 -48.7354 -4.4832 47.7845 -60.4852 8.98925 13.1566 2.64834e-031 9.54166e-015 -1.59028e-015 1.59028e-015 1.59028e-014 -3.18055e-015 0.779532 11.6498 -3.66761 
31.1399 95.7766 -28.2733 -0.828454 1.0151 8.06109 -0.311992 2.74251 0.575157 7.58053 -8.12895 7.4578 -0.139834 10.6777 -18.8574 2.75964 -3.98472 -0.0379124 -3.67242 -3.46976 5.39578 -0.593666 -3.68475 -6.72713 -0.202435 9.63163 -0.371124 -6.33218 -9.76159 0.785618 1.97672 -7.00321 2.3899 -0.65255 5.47359 1.16724 -0.652552 5.47357 1.16724 -0.428261 2.51036 -3.27425 -25.6658 -1.78931 -0.489383 -47.0778 35.8492 -1.91088 10.7756 1.00756 -27.3967 8.8822 1.59017 -2.06839 -1.59028e-015 0 3.18055e-015 1.59028e-015 -6.36111e-015 -0 10.6498 4.64777 35.7352 26.2447 12.3433 56.3125 -47.9964 -2.35143 47.8731 -59.8225 9.44233 12.6859 0 3.18055e-015 -0 1.59028e-015 0 -0 0.108074 11.6275 -3.33732 
31.1411 95.7375 -28.2556 -0.65494 0.87199 7.75637 -0.310322 2.74236 0.543418 7.4206 -7.9403 10.3732 0.411506 10.8332 -21.5515 3.1804 -3.95291 -0.03997 -3.53173 -3.60661 5.30336 -0.772298 -3.85678 -6.01872 -0.10351 10.2542 -0.427348 -6.4218 -9.98467 0.479945 1.97291 -6.98593 2.35979 -0.668228 5.49382 1.10416 -0.668229 5.49383 1.10416 -0.764262 2.64224 -2.98762 -25.2793 -1.7975 -0.709982 -47.4004 36.7024 -1.7031 10.9641 0.51129 -26.7997 7.91623 1.74467 -1.85866 -3.18055e-015 0 -0 -1.59028e-015 0 -3.18055e-015 11.14 4.55932 35.5018 25.3255 11.8879 57.0054 -46.9896 0.534677 47.9921 -59.3953 9.73757 12.0745 1.59028e-015 6.36111e-015 -3.18055e-015 -1.59028e-015 6.36111e-015 -1.59028e-015 -0.071357 11.827 -3.10548 
31.1358 95.7136 -28.2629 -0.626436 0.77538 7.3341 -0.310392 2.74227 0.560316 7.41866 -7.89229 12.3344 0.849993 11.1309 -23.1315 2.79943 -4.40005 -0.0229118 -3.70902 -3.41486 5.41113 -0.849129 -3.9549 -5.46889 0.0152812 10.5474 -0.416817 -6.45035 -10.0864 0.372545 1.96033 -6.897 2.28367 -0.659309 5.49586 1.13783 -0.657546 5.49587 1.13773 -0.896528 2.43761 -2.86824 -24.978 -1.58971 -0.629516 -47.6998 38.3198 -1.67823 11.5071 -0.659695 -25.9366 7.12991 1.79824 -1.53024 -1.59028e-015 9.54166e-015 1.59028e-015 -6.36111e-015 9.54167e-015 1.59028e-015 11.4632 4.82815 35.363 24.6203 11.4629 57.7028 -45.9476 3.58628 48.0147 -58.8168 9.7797 11.4485 -1.59028e-015 -3.18055e-015 -0 -1.59028e-015 0 -0 0.0522474 12.2824 -3.06346 
31.1448 95.7407 -28.2628 -0.516724 0.732948 6.91488 -0.310239 2.73876 0.649119 7.24562 -7.52682 10.278 0.481677 10.668 -20.7688 2.66291 -4.17508 -0.023192 -3.69352 -3.41146 5.42973 -1.00648 -3.85453 -5.27725 0.0856116 10.387 -0.378755 -6.44046 -10.0807 0.47511 1.9499 -6.83064 2.23912 -0.655333 5.47377 1.31574 -0.65492 5.47378 1.31572 -0.67333 2.28344 -3.09737 -25.2096 -1.46988 -0.632728 -47.5292 38.6727 -1.93964 11.6199 -0.929036 -25.2152 7.07332 1.59973 -1.49672 -3.18055e-015 -3.18055e-015 -0 -4.77083e-015 0 -0 11.9209 5.19914 35.1215 25.2971 10.7047 58.2452 -44.6174 6.83792 48.4142 -57.1795 8.94566 11.136 -1.59028e-015 -9.54166e-015 3.18055e-015 -3.18055e-015 -6.36111e-015 3.18055e-015 0.0228195 12.4563 -3.20643 
